<svg xmlns="http://www.w3.org/2000/svg" viewBox="0 0 105.5338 90.0787"><defs><style>.cls-1{fill:#222;}.cls-2{fill:#fff;}</style></defs><title>Element 12</title><g id="Ebene_2" data-name="Ebene 2"><g id="Plakette"><polygon class="cls-1" points="90.079 0 68.222 0 37.312 0 15.455 0 0 0 0 6.402 0 23.241 0 37.312 15.455 52.767 37.312 74.624 52.767 90.079 68.222 74.624 90.079 52.767 105.428 37.418 105.534 37.524 105.534 23.241 105.534 6.613 105.534 0 90.079 0"/><g id="Allgemein"><g id="Allgemein-2" data-name="Allgemein"><path class="cls-2" d="M41.8664,12.48h4.3685V8.1113H40.41V6.6555H47.691v7.2808H40.41V9.5679H41.866Z"/><path class="cls-2" d="M56.428,6.6555V8.1113H49.1472V6.6555ZM49.1472,9.5679H56.428v1.4558H50.6034V12.48H56.428v1.4558H49.1472Z"/><path class="cls-2" d="M60.7965,11.024H59.3407v2.9123H57.8848V6.6555h7.2808V11.024H62.5939l2.571,2.9123H63.3675ZM59.34,8.1113V9.5671h4.3685V8.1113Z"/><path class="cls-2" d="M14.6828,22.5238l.9531.9531v3.8113H6.1071V17.76h9.5286V21.571Zm-.9531-.953V19.6646H8.0132v1.9062ZM8.0132,23.4767v1.9062H13.73V23.4767Z"/><path class="cls-2" d="M27.07,17.76v9.5287H17.5414V17.76Zm-7.6229,1.9061V25.382h5.7172V19.6652Z"/><path class="cls-2" d="M38.5046,17.76v9.5287H28.9758V17.76Zm-7.623,1.9061V25.382h5.7172V19.6652Z"/><path class="cls-2" d="M40.41,27.2882V17.76h1.9062V21.571L47.17,17.76h2.7693l-5.7173,4.8834,5.7169,4.6453H47.14L42.316,23.4768v3.8114Z"/><path class="cls-2" d="M6.1071,14.8893H99.4682v1.9062H53.564v10.593H51.6579V16.7951H6.1071Z"/><path class="cls-2" d="M59.4483,23.4767H57.5422v3.8115H55.636V17.76h9.5286v5.7172H61.8l3.3648,3.8115H62.8126Zm-1.9061-3.8115v1.9062h5.7172V19.6652Z"/><path class="cls-2" d="M68.9764,17.76V25.382h5.7173V17.76H76.6v9.5287H67.0707V17.76Z"/><path class="cls-2" d="M80.4108,27.2882H78.5046V17.76h9.5288v5.7172H80.4108Zm5.7173-5.7171V19.6649H80.4108v1.9062Z"/><path class="cls-2" d="M91.8452,27.2882H89.939V17.76h9.5288v5.7172H91.8452Zm5.7172-5.7171V19.6649H91.8452v1.9062Z"/><polygon class="cls-2" points="67.28 44.54 91.855 44.54 93.74 40.729 68.982 40.729 67.28 44.54"/><polygon class="cls-2" points="97.573 33.106 99.458 29.294 74.088 29.294 72.386 33.106 97.573 33.106"/><polygon class="cls-2" points="71.536 35.011 69.834 38.823 94.713 38.823 96.6 35.011 71.536 35.011"/><polygon class="cls-2" points="38.294 44.54 13.72 44.54 11.834 40.729 36.592 40.729 38.294 44.54"/><polygon class="cls-2" points="66.43 46.446 56.351 69.018 53.094 69.018 52.481 69.018 49.224 69.018 39.146 46.446 32.886 46.446 46.225 73.408 52.481 73.408 53.094 73.408 59.351 73.408 72.689 46.446 66.43 46.446"/><polygon class="cls-2" points="8.003 33.106 6.118 29.294 31.487 29.294 33.189 33.106 8.003 33.106"/><polygon class="cls-2" points="34.04 35.011 35.742 38.823 10.861 38.823 8.976 35.011 34.04 35.011"/><rect class="cls-2" x="51.0063" y="36.1989" width="3.5626" height="1.1876"/><rect class="cls-2" x="51.0063" y="38.574" width="3.5626" height="1.1876"/><path class="cls-2" d="M65.7192,29.2942H35.204L50.5018,65.6014h4.5717L70.3714,29.2942Zm-5.2125,6.9047H58.1316v4.75H56.944v-4.75H55.7564v1.1875l-.5937.5938.5937.5938v2.375H45.0683V37.3864h1.1876v2.3757h3.5626V36.1989h-4.75V35.0113H60.5061Z"/></g></g></g></g></svg>