<svg xmlns="http://www.w3.org/2000/svg" viewBox="0 0 105.5338 90.0787"><defs><style>.cls-1{fill:#222;}.cls-2{fill:#fff;}</style></defs><title>Element 1</title><g id="Ebene_2" data-name="Ebene 2"><g id="Plakette"><polygon class="cls-1" points="90.079 0 68.222 0 37.312 0 15.455 0 0 0 0 6.402 0 23.241 0 37.312 15.455 52.767 37.312 74.624 52.767 90.079 68.222 74.624 90.079 52.767 105.428 37.418 105.534 37.524 105.534 23.241 105.534 6.613 105.534 0 90.079 0"/><polygon class="cls-2" points="67.263 44.548 91.843 44.548 93.729 40.736 68.965 40.736 67.263 44.548"/><polygon class="cls-2" points="97.562 33.112 99.448 29.299 74.072 29.299 72.37 33.112 97.562 33.112"/><polygon class="cls-2" points="71.519 35.018 69.817 38.83 94.702 38.83 96.588 35.018 71.519 35.018"/><polygon class="cls-2" points="38.271 44.548 13.691 44.548 11.805 40.736 36.568 40.736 38.271 44.548"/><polygon class="cls-2" points="66.412 46.455 56.331 69.031 53.073 69.031 52.461 69.031 49.202 69.031 39.122 46.455 32.861 46.455 46.203 73.423 52.461 73.423 53.073 73.423 59.331 73.423 72.673 46.455 66.412 46.455"/><polygon class="cls-2" points="7.972 33.112 6.086 29.299 31.462 29.299 33.164 33.112 7.972 33.112"/><polygon class="cls-2" points="34.015 35.018 35.717 38.83 10.831 38.83 8.945 35.018 34.015 35.018"/><path class="cls-2" d="M51.5243,43.52a3.4843,3.4843,0,1,0-2.1333.24A3.5129,3.5129,0,0,0,51.5243,43.52Z"/><path class="cls-2" d="M55.1788,47.8728a2.5568,2.5568,0,1,0,1.2708.8311A2.5739,2.5739,0,0,0,55.1788,47.8728Z"/><path class="cls-2" d="M59.3118,33.2648a2.0511,2.0511,0,1,0,1.0193.6667A2.064,2.064,0,0,0,59.3118,33.2648Z"/><path class="cls-2" d="M65.7013,29.2992H35.1793L50.4806,65.6145h4.5726L70.3545,29.2992ZM49.3808,46.47a.37.37,0,0,1-.0983.13.3385.3385,0,0,1-.2687.0776q-.1676-.0344-.3347-.07a.6769.6769,0,0,1-.3046-.0953.3947.3947,0,0,1-.1314-.1921,1.24,1.24,0,0,1-.0169-.1692l-.0384-.417-.04-.4292c-.0056-.06.0105-.2256-.0835-.2228.0082-.02-.1449-.081-.15-.0688-.061-.0784-.2114.08-.2593.1155l-.3923.2927-.3053.2279a.3965.3965,0,0,1-.1424.0817.4416.4416,0,0,1-.1407.0119.255.255,0,0,1-.15-.0537q-.1354-.097-.27-.1953-.07-.051-.14-.1025a.2743.2743,0,0,1-.1092-.13.3763.3763,0,0,1-.0317-.2108,1.4572,1.4572,0,0,1,.0558-.1668l.1336-.3939.1363-.4019c.0194-.0572.1015-.2019.0144-.2375.0163-.0156-.1-.1323-.1086-.1236-.0238-.0965-.2256-.0132-.2839,0l-.4838.1094-.3652.0825a.3853.3853,0,0,1-.1755.0146.4592.4592,0,0,1-.1453-.0576.2829.2829,0,0,1-.1044-.12q-.0875-.15-.1737-.3-.0419-.073-.0835-.1461a.2444.2444,0,0,1-.0291-.1455.3726.3726,0,0,1,.0558-.1921,1.38,1.38,0,0,1,.1161-.1271l.2811-.3041.2925-.3166c.041-.0445.1748-.1431.11-.2111.0185-.0049-.0439-.1464-.0473-.1574-.0071-.0241-.0107-.0567-.0406-.0713a.5637.5637,0,0,0-.1267-.0253l-.4765-.0949-.4221-.0841a.7613.7613,0,0,1-.164-.0376.4153.4153,0,0,1-.1857-.1815.4781.4781,0,0,1-.0263-.1581q-.01-.089-.0191-.1779-.01-.0943-.0195-.1888a.7757.7757,0,0,1-.0147-.1482.4051.4051,0,0,1,.14-.2292.5825.5825,0,0,1,.1469-.0724l.3871-.1664.4124-.1773c.0563-.0242.233-.0639.2-.1543.017-.0018.0271-.1577.0273-.1863,0-.0494-.0155-.0592-.05-.0839L44.7,39.45l-.6078-.43a.6921.6921,0,0,1-.1012-.0753.3813.3813,0,0,1-.0852-.163.2446.2446,0,0,1-.0058-.1455l.0417-.1307q.0476-.1482.0962-.2958c.0148-.0452.027-.0929.0453-.1369a.2842.2842,0,0,1,.1021-.1117.3275.3275,0,0,1,.1969-.071l.6676.0086.3594.0046c.0365,0,.074.0036.11.0014a.0958.0958,0,0,0,.077-.06c.0255-.0465.0541-.1028.079-.1435.0146-.0239.0364-.0438.0281-.0755a.3687.3687,0,0,0-.0453-.076l-.172-.2894-.3608-.6068a.31.31,0,0,1-.0519-.1467.4666.4666,0,0,1,.0112-.1423.2646.2646,0,0,1,.0755-.1294q.0981-.11.1972-.22l.1054-.1164a.398.398,0,0,1,.1032-.0992.43.43,0,0,1,.2421-.0392.46.46,0,0,1,.1228.0474q.3339.1537.6678.3076l.281.1294c.0459.0211.0647.0309.1124-.003.024-.0171.0562-.0421.0854-.0633a.681.681,0,0,0,.0934-.0657c.0437-.0455.0022-.1766-.0045-.2327l-.045-.3811c-.0232-.1966-.0622-.398-.07-.5958a.3574.3574,0,0,1,.1534-.2914c.1717-.0934.3621-.1629.5412-.2411a.35.35,0,0,1,.3314.0709c.0438.0413.0812.0926.1209.1378l.506.5767.0983.112a.3606.3606,0,0,0,.0583.0664c.0278.0178.067.0023.0927-.0034.0491-.011.1011-.0228.149-.0322.059-.0115.0714-.0185.0876-.07q.1045-.3369.2094-.6737l.1-.3219a.6468.6468,0,0,1,.0407-.1184.3886.3886,0,0,1,.1344-.1335.2413.2413,0,0,1,.1376-.0457l.1387-.0007q.1556,0,.3108,0a1.3313,1.3313,0,0,1,.1427.0009.2911.2911,0,0,1,.1261.06c.1371.0975.1557.2442.2028.3958q.1135.3651.227.73l.0358.115c.0158.051.0488.058.0961.0672.0546.0105.1849.0644.2332.03a.45.45,0,0,0,.0628-.0717l.4935-.5624.192-.2188a.2994.2994,0,0,1,.123-.09.4631.4631,0,0,1,.1287-.0306.2356.2356,0,0,1,.1349.0241q.1389.0607.2771.1226l.144.0645A.703.703,0,0,1,53,34.6263a.4039.4039,0,0,1,.1275.231.4323.4323,0,0,1-.0056.1327l-.0383.3244-.0843.7133c-.0045.0381-.0148.0666.0183.0959.0314.0279.0685.0481.1054.0752a.4909.4909,0,0,0,.098.0706c.034.0128.0609-.0081.092-.0224l.1262-.0581.6985-.3218c.0627-.0289.1254-.0637.19-.0876a.3489.3489,0,0,1,.33.0619q.2.2186.3966.44a.3493.3493,0,0,1,.0276.3338c-.0857.174-.2013.3386-.3.5052l-.1976.3323-.07.1177c-.0166.0279-.0407.0546-.0375.0873a.1336.1336,0,0,0,.026.0526c.0219.035.0457.0832.0679.1229.0249.044.0421.0813.1.0806l.2908-.0038.7484-.01a.798.798,0,0,1,.1321.0009.3937.3937,0,0,1,.1886.1007.5517.5517,0,0,1,.1239.2636q.0481.1472.0954.2947a.5346.5346,0,0,1,.0384.1346.3866.3866,0,0,1-.03.136.3165.3165,0,0,1-.1072.1514c-.1782.1285-.3587.2537-.538.38l-.2968.21c-.0468.0331-.1662.0867-.12.1612a.9519.9519,0,0,0,.0143.2c.0091.0449.0433.05.08.0663l1.0352.445a.4056.4056,0,0,1,.1593.2122.4986.4986,0,0,1-.0044.2172q-.0121.12-.0251.2405a2.0476,2.0476,0,0,1-.0242.22.3318.3318,0,0,1-.1044.1515.3134.3134,0,0,1-.1233.0761c-.1105.0311-.2287.0456-.3412.068l-.5486.1092-.2072.0413c-.0465.0092-.1117.0174-.102.0842-.0177-.0069-.0506.1445-.0543.1551-.0079.0226-.0246.0513-.01.08a.5411.5411,0,0,0,.0889.0961l.3251.3519.2906.3144a1.009,1.009,0,0,1,.1117.125.4076.4076,0,0,1,.0506.2328.7852.7852,0,0,1-.1477.3038c-.0569.0987-.1089.2047-.1735.2985a.3669.3669,0,0,1-.26.1238.62.62,0,0,1-.17-.03l-.4091-.0925-.4365-.0987c-.0593-.0133-.2213-.0834-.2476.0083-.0169-.014-.1221.1126-.1116.1209-.0935.0338.01.2257.03.2823q.0784.2319.1572.4636l.1223.3608a.392.392,0,0,1,.0334.1666.4536.4536,0,0,1-.0384.1473.2686.2686,0,0,1-.105.1206q-.1353.0994-.2713.1977-.0692.05-.1387.1a.265.265,0,0,1-.1594.0544.37.37,0,0,1-.1946-.0363,1.4739,1.4739,0,0,1-.1409-.1044l-.3334-.2488-.34-.2538c-.0484-.0362-.1606-.1589-.2213-.0871-.01-.02-.1569.0542-.1512.0651-.1-.0072-.0828.2155-.0883.2754l-.0456.4949-.0344.3737a.3644.3644,0,0,1-.043.17.4567.4567,0,0,1-.0985.1165.28.28,0,0,1-.1439.0606q-.1694.0369-.339.0726l-.1648.0342a.24.24,0,0,1-.1441-.0161.3746.3746,0,0,1-.1679-.1126,1.29,1.29,0,0,1-.0834-.1467l-.2048-.3652-.2107-.3761c-.0295-.0528-.0821-.21-.1668-.17,0-.0263-.0652-.0127-.0882-.0128-.0158,0-.0782-.0116-.0763.0108-.0881-.0472-.1633.1632-.1927.2156l-.243.4337Zm9.7864,4.25c-.006.0587-.0122.1176-.0185.1763a1.5,1.5,0,0,1-.0177.1614.2435.2435,0,0,1-.0765.1111.23.23,0,0,1-.09.0558c-.081.0228-.1677.0334-.25.05l-.4022.08-.1518.03c-.0342.0068-.082.0127-.0748.0617-.013-.005-.0372.106-.04.1137-.0057.0166-.018.0377-.0074.059a.3938.3938,0,0,0,.0652.07l.2383.258.213.2306a.7246.7246,0,0,1,.0819.0916.3.3,0,0,1,.0372.1706.5773.5773,0,0,1-.1084.2227c-.0416.0724-.08.15-.1272.2188a.2682.2682,0,0,1-.1907.0908.4467.4467,0,0,1-.1245-.0218l-.3-.0677-.32-.0724c-.0435-.01-.1622-.0611-.1815.0061-.0124-.01-.09.0826-.0819.0886-.0685.0248.0076.1655.0218.207l.1152.34.09.2646a.2856.2856,0,0,1,.0244.1221.3272.3272,0,0,1-.0281.108.1959.1959,0,0,1-.0769.0884q-.0992.0729-.1989.145l-.1017.0733a.1937.1937,0,0,1-.1169.04.27.27,0,0,1-.1426-.0266,1.0776,1.0776,0,0,1-.1034-.0765l-.2444-.1824-.2494-.1861c-.0354-.0265-.1177-.1165-.1622-.0638-.0072-.0148-.115.04-.1108.0477-.0731-.0053-.0607.158-.0648.2019l-.0334.3629-.0252.2739a.2678.2678,0,0,1-.0315.1245.3375.3375,0,0,1-.0722.0853.2061.2061,0,0,1-.1056.0445q-.1242.027-.2485.0532l-.1208.0251a.1768.1768,0,0,1-.1057-.0118.2748.2748,0,0,1-.123-.0826.94.94,0,0,1-.0612-.1075l-.15-.2678-.1545-.2757c-.0216-.0387-.06-.1543-.1223-.1243,0-.0194-.0478-.0094-.0646-.0094-.0117,0-.0574-.0085-.056.0079-.0646-.0346-.12.12-.1413.1581l-.1781.3179-.1345.24a.2739.2739,0,0,1-.0721.0955.2484.2484,0,0,1-.1971.0569q-.1227-.0252-.2453-.0516a.4952.4952,0,0,1-.2233-.07.29.29,0,0,1-.0963-.1408.9041.9041,0,0,1-.0124-.1241l-.0282-.3057-.0291-.3147c-.004-.0441.0078-.1654-.0611-.1633.0059-.0149-.1062-.0594-.11-.05-.0447-.0576-.155.0584-.19.0846l-.2876.2146-.2239.1671a.2909.2909,0,0,1-.1044.06.3225.3225,0,0,1-.1031.0087.1873.1873,0,0,1-.11-.0393q-.0993-.0712-.198-.1433l-.1026-.075a.2013.2013,0,0,1-.08-.0955.2756.2756,0,0,1-.0232-.1546,1.0693,1.0693,0,0,1,.0408-.1223l.098-.2887.1-.2947c.0143-.042.0744-.148.0106-.1741.0119-.0115-.0733-.097-.08-.0906-.0175-.0708-.1655-.01-.2082,0l-.3546.08-.2678.06a.2835.2835,0,0,1-.1287.0107.3363.3363,0,0,1-.1065-.0423.2063.2063,0,0,1-.0765-.0876q-.0642-.11-.1274-.22l-.0612-.1071a.1786.1786,0,0,1-.0213-.1067.2724.2724,0,0,1,.0409-.1408.9864.9864,0,0,1,.0852-.0931l.2059-.223.2145-.2322c.03-.0325.1282-.1049.08-.1547.0136-.0036-.0322-.1073-.0346-.1154-.0053-.0176-.0079-.0416-.03-.0523a.4169.4169,0,0,0-.0929-.0185l-.3493-.07-.3095-.0617a.558.558,0,0,1-.12-.0276.3054.3054,0,0,1-.1362-.1331.3515.3515,0,0,1-.0193-.1159l-.014-.13-.0142-.1384a.5565.5565,0,0,1-.0108-.1087.2965.2965,0,0,1,.1027-.168.428.428,0,0,1,.1076-.0531l.2839-.122.3024-.13c.0412-.0177.1708-.0468.1467-.1131.0124-.0013.02-.1156.02-.1366,0-.0362-.0113-.0434-.037-.0615l-.1742-.1232-.4456-.3151a.5151.5151,0,0,1-.0742-.0551.2788.2788,0,0,1-.0624-.12.1787.1787,0,0,1-.0043-.1067l.0306-.0959q.0348-.1084.07-.2168c.0109-.0332.02-.0681.0332-.1a.2082.2082,0,0,1,.0748-.0818.24.24,0,0,1,.1444-.0521l.4895.0063.2635.0033c.0267,0,.0542.0027.0808.0011a.0708.0708,0,0,0,.0565-.0437c.0186-.0341.04-.0754.0579-.1053.0107-.0174.0266-.0321.02-.0553a.2657.2657,0,0,0-.0331-.0557l-.1261-.2122-.2646-.4449a.229.229,0,0,1-.038-.1075.3421.3421,0,0,1,.0082-.1043.1934.1934,0,0,1,.0554-.0949q.0718-.081.1445-.1613l.0773-.0853A.2917.2917,0,0,1,51.1653,47a.3157.3157,0,0,1,.1775-.0287.3379.3379,0,0,1,.09.0346l.49.2256.206.0949c.0336.0155.0474.0226.0824-.0022.0176-.0126.0412-.0309.0626-.0464a.495.495,0,0,0,.0684-.0482c.0321-.0334.0017-.13-.0032-.1706l-.033-.2794c-.017-.1441-.0456-.2918-.0516-.4368a.2624.2624,0,0,1,.1125-.2137c.1259-.0684.2655-.1194.3968-.1767a.2563.2563,0,0,1,.2429.0519c.0321.03.06.0679.0887.1011l.3709.4228.072.0821a.27.27,0,0,0,.0428.0487c.02.013.0492.0017.068-.0025.036-.008.0742-.0167.1093-.0236.0432-.0084.0523-.0135.0642-.0516q.0766-.247.1535-.494l.0732-.2358a.4873.4873,0,0,1,.03-.0869.2861.2861,0,0,1,.0986-.0979.1767.1767,0,0,1,.1009-.0335l.1017-.0005q.1139,0,.2278,0a.96.96,0,0,1,.1046.0006.2143.2143,0,0,1,.0924.044c.1005.0716.1142.1791.1488.29l.1664.5356.0263.0843c.0115.0374.0357.0425.07.0493.04.0077.1355.0472.1709.0222a.3266.3266,0,0,0,.0461-.0525q.1809-.2062.3618-.4123l.1408-.1605a.2212.2212,0,0,1,.09-.0661.344.344,0,0,1,.0944-.0224.1736.1736,0,0,1,.0989.0177q.1017.0445.2031.09l.1056.0474a.5035.5035,0,0,1,.0868.0393.2958.2958,0,0,1,.0935.1693.3123.3123,0,0,1-.0042.0973l-.028.2378-.0618.523c-.0033.0279-.0109.0488.0134.07s.05.0352.0773.0551a.359.359,0,0,0,.0718.0517c.025.01.0446-.0059.0675-.0163l.0925-.0427.5121-.2359c.046-.0212.0919-.0466.1394-.0642a.2557.2557,0,0,1,.242.0454q.1466.16.2908.3229a.2563.2563,0,0,1,.02.2447c-.0628.1275-.1476.2482-.22.37l-.1449.2436-.0513.0863c-.0121.02-.03.04-.0274.0639a.098.098,0,0,0,.019.0387c.0161.0256.0335.0609.05.09.0182.0323.0308.06.0732.0591l.2132-.0027.5487-.0071a.5793.5793,0,0,1,.0968.0007.2879.2879,0,0,1,.1383.0737.405.405,0,0,1,.0908.1933q.0354.108.07.2161a.3912.3912,0,0,1,.0281.0987.2817.2817,0,0,1-.0219.1.2312.2312,0,0,1-.0786.1111c-.1306.0942-.263.186-.3944.2789l-.2176.1539c-.0343.0242-.1218.0635-.0876.1181a.698.698,0,0,0,.0105.1465c.0066.033.0317.0371.0585.0486l.7589.3262a.2975.2975,0,0,1,.1169.1556A.3667.3667,0,0,1,59.1672,50.72Zm3.3436-15.1715-.0147.1415a1.2131,1.2131,0,0,1-.0142.1294.1949.1949,0,0,1-.0614.0891.1864.1864,0,0,1-.0726.0448c-.0649.0183-.1344.0268-.2006.04l-.3226.0643-.1218.0242c-.0274.0055-.0657.01-.06.05-.0105-.004-.03.085-.0319.0912-.0047.0133-.0146.03-.006.0472a.3139.3139,0,0,0,.0523.0566l.1911.2069.1709.1849a.58.58,0,0,1,.0657.0736.2386.2386,0,0,1,.03.1368.4609.4609,0,0,1-.0868.1786c-.0334.0581-.064.12-.102.1755a.2161.2161,0,0,1-.153.0729.364.364,0,0,1-.1-.0175l-.2406-.0544-.2566-.058c-.0349-.0079-.13-.0491-.1456.0049-.01-.0083-.0718.0662-.0657.0711-.0549.02.0062.1327.0175.166l.0924.2726.072.2121a.23.23,0,0,1,.02.098.2633.2633,0,0,1-.0225.0866.1567.1567,0,0,1-.0617.0709q-.0795.0585-.16.1163l-.0815.0588a.156.156,0,0,1-.0938.032.2162.2162,0,0,1-.1144-.0214.8614.8614,0,0,1-.0829-.0614l-.196-.1463-.2-.1492c-.0285-.0213-.0944-.0935-.13-.0512-.0059-.0119-.0922.0318-.0889.0382-.0586-.0042-.0487.1268-.052.162l-.0268.291-.02.22a.2132.2132,0,0,1-.0252.1.268.268,0,0,1-.0579.0685.1655.1655,0,0,1-.0846.0357q-.1.0216-.1994.0426l-.0969.02a.1406.1406,0,0,1-.0847-.01.22.22,0,0,1-.0988-.0662.7609.7609,0,0,1-.049-.0861l-.12-.2149-.1239-.2211c-.0174-.0311-.0483-.1238-.0981-.1,0-.0156-.0384-.0076-.0519-.0076-.0093,0-.0459-.0068-.0449.0064-.0518-.0278-.096.0959-.1133.1267l-.1428.255-.108.1926a.2176.2176,0,0,1-.0578.0766.199.199,0,0,1-.158.0456q-.0986-.02-.1968-.0414a.3971.3971,0,0,1-.1791-.056.2316.2316,0,0,1-.0773-.113.7167.7167,0,0,1-.01-.0994l-.0227-.2452-.0232-.2525c-.0033-.0353.0062-.1327-.0491-.1309.0047-.012-.0852-.0477-.0879-.04-.0359-.0461-.1243.0469-.1525.0678l-.2307.1722-.18.134a.2344.2344,0,0,1-.0838.0481.2615.2615,0,0,1-.0827.007.15.15,0,0,1-.088-.0316q-.08-.057-.1588-.1149l-.0823-.06a.1619.1619,0,0,1-.0643-.0766.2226.2226,0,0,1-.0186-.124.86.86,0,0,1,.0328-.098l.0786-.2317.08-.2363c.0114-.0337.06-.1187.0084-.14.01-.0092-.0587-.0779-.0639-.0727-.014-.0568-.1326-.0078-.1669,0l-.2845.0643-.2147.0486a.2271.2271,0,0,1-.1032.0085.2693.2693,0,0,1-.0855-.0339.1646.1646,0,0,1-.0613-.07q-.0516-.0881-.1022-.1764l-.0491-.0859a.1421.1421,0,0,1-.0171-.0856.22.22,0,0,1,.0328-.113.8018.8018,0,0,1,.0683-.0746l.1652-.1789.172-.1862c.0242-.0261.1028-.0841.0645-.1241.011-.0029-.0258-.0861-.0277-.0926-.0042-.0142-.0064-.0333-.0239-.0419a.33.33,0,0,0-.0745-.0148l-.28-.0559-.2483-.0494a.4455.4455,0,0,1-.0964-.0222.2427.2427,0,0,1-.1091-.1067.2792.2792,0,0,1-.0156-.0929L55,35.6367l-.0115-.1109a.4621.4621,0,0,1-.0086-.0873.2384.2384,0,0,1,.0823-.1347.3459.3459,0,0,1,.0864-.0426l.2277-.0979.2425-.1042c.0331-.0142.137-.0376.1178-.0907.01-.0011.0159-.0927.016-.11,0-.029-.0092-.0348-.03-.0493l-.14-.0988-.3574-.2527a.4168.4168,0,0,1-.0594-.0443.2243.2243,0,0,1-.05-.0959.1429.1429,0,0,1-.0033-.0855l.0245-.0769q.0279-.087.0565-.1739c.0087-.0266.0159-.0547.0266-.08a.1676.1676,0,0,1,.06-.0657.1921.1921,0,0,1,.1158-.0418l.3926.0051L56,33.8013c.0214,0,.0436.0021.0649.0008a.0566.0566,0,0,0,.0453-.0351c.0149-.0273.0318-.06.0464-.0844.0086-.014.0214-.0257.0165-.0443a.2119.2119,0,0,0-.0266-.0447l-.1011-.17-.2122-.3569a.1826.1826,0,0,1-.0306-.0862.274.274,0,0,1,.0067-.0837.1544.1544,0,0,1,.0444-.0761q.0577-.0648.1159-.1293l.0619-.0685a.2351.2351,0,0,1,.0608-.0583.2531.2531,0,0,1,.1423-.0231.2734.2734,0,0,1,.0723.0279L56.7,32.75l.1652.0761c.027.0125.038.0181.0661-.0018l.05-.0372a.3988.3988,0,0,0,.0549-.0386c.0257-.0268.0013-.1039-.0026-.1369l-.0265-.2241c-.0136-.1156-.0366-.234-.0413-.35a.21.21,0,0,1,.09-.1713c.1009-.0549.2129-.0958.3182-.1418a.2062.2062,0,0,1,.1949.0417c.0258.0243.0478.0544.0711.081l.2976.3392.0577.0658a.2181.2181,0,0,0,.0343.0391c.0164.01.0394.0013.0545-.002.029-.0064.0595-.0134.0877-.0189.0347-.0068.042-.0109.0514-.0415l.1232-.3962.0588-.1892a.3838.3838,0,0,1,.0239-.07.23.23,0,0,1,.0791-.0785.1416.1416,0,0,1,.0809-.0269l.0816,0q.0914,0,.1828,0a.7824.7824,0,0,1,.0839,0,.1718.1718,0,0,1,.0741.0353c.0806.0574.0916.1436.1193.2327l.1335.43.021.0676c.0093.03.0287.0342.0566.04.032.0062.1087.0379.137.0178a.2663.2663,0,0,0,.037-.0421l.29-.3307.1129-.1287a.1774.1774,0,0,1,.0723-.0531.2733.2733,0,0,1,.0756-.0179.1381.1381,0,0,1,.0794.0142q.0816.0357.163.072l.0846.038a.4091.4091,0,0,1,.07.0315.2366.2366,0,0,1,.075.1358.2526.2526,0,0,1-.0033.078l-.0225.1908-.0495.4195c-.0027.0224-.0087.0391.0108.0564s.04.0282.0619.0442a.2915.2915,0,0,0,.0576.0415c.02.0076.0358-.0048.0541-.0132l.0742-.0342.4108-.1892c.0369-.017.0737-.0374.1118-.0515a.2054.2054,0,0,1,.1941.0364q.1176.1286.2332.259a.2057.2057,0,0,1,.0163.1963c-.05.1023-.1184.1991-.1767.2971l-.1162.1954-.0411.0692c-.01.0164-.024.0321-.022.0513a.08.08,0,0,0,.0152.031c.013.0206.0269.0489.04.0722.0146.0259.0247.0479.0587.0474l.171-.0022.44-.0056a.4467.4467,0,0,1,.0776,0,.2312.2312,0,0,1,.1109.0592.3233.3233,0,0,1,.0729.155q.0284.0865.0561.1733a.3113.3113,0,0,1,.0226.0792.2264.2264,0,0,1-.0176.08.1854.1854,0,0,1-.063.089c-.1047.0756-.2109.1492-.3164.2238l-.1745.1234c-.0275.0194-.0977.0509-.07.0948a.55.55,0,0,0,.0083.1175c.0054.0264.0255.03.047.0389l.6087.2617a.2387.2387,0,0,1,.0938.1248A.2934.2934,0,0,1,62.5108,35.5484Z"/><path class="cls-2" d="M41.8433,12.4814h4.3694V8.112H40.3868V6.6555h7.2824v7.2824H40.3868V9.5685h1.4565Z"/><path class="cls-2" d="M56.4081,6.6555V8.112H49.1257V6.6555Zm-7.2824,2.913h7.2824V11.025H50.5822v1.4564h5.8259v1.4565H49.1257Z"/><path class="cls-2" d="M60.7775,11.025H59.321v2.9129H57.8646V6.6555H65.147v4.37H62.5754l2.5716,2.9129H63.3491ZM59.321,8.112V9.5685h4.37V8.112Z"/><path class="cls-2" d="M14.6537,22.5273l.9531.9531v3.8123H6.076V17.7619h9.5308v3.8123Zm-.9531-.9531V19.6681H7.9822v1.9061ZM7.9822,23.48v1.9061h5.7184V23.48Z"/><path class="cls-2" d="M27.0437,17.7619v9.5308H17.513V17.7619Zm-7.6246,1.9062v5.7184h5.7185V19.6681Z"/><path class="cls-2" d="M38.4806,17.7619v9.5308H28.95V17.7619ZM30.856,19.6681v5.7184h5.7185V19.6681Z"/><path class="cls-2" d="M40.3868,27.2927V17.7619h1.9061v3.8123l4.8548-3.8123h2.77l-5.7185,4.8845,5.7185,4.6463h-2.8L42.2929,23.48v3.8123Z"/><path class="cls-2" d="M6.076,14.8911H99.4577v1.9062H53.5434V27.3931H51.6373V16.7973H6.076Z"/><path class="cls-2" d="M59.4285,23.48H57.5224v3.8123H55.6162V17.7619H65.147V23.48H61.7814l3.3656,3.8123H62.7941Zm-1.9061-3.8123v1.9061h5.7184V19.6681Z"/><path class="cls-2" d="M68.9593,17.7619v7.6246h5.7184V17.7619h1.9062v9.5308H67.0531V17.7619Z"/><path class="cls-2" d="M80.3962,27.2927H78.49V17.7619h9.5308V23.48H80.3962Zm5.7184-5.7185V19.6681H80.3962v1.9061Z"/><path class="cls-2" d="M91.8331,27.2927H89.9269V17.7619h9.5308V23.48H91.8331Zm5.7185-5.7185V19.6681H91.8331v1.9061Z"/></g></g></svg>