<svg xmlns="http://www.w3.org/2000/svg" viewBox="0 0 105.5338 90.0787"><defs><style>.cls-1{fill:#222;}.cls-2{fill:#fff;}</style></defs><title>Element 10</title><g id="Ebene_2" data-name="Ebene 2"><g id="Plakette"><polygon class="cls-1" points="90.079 0 68.222 0 37.312 0 15.455 0 0 0 0 6.402 0 23.241 0 37.312 15.455 52.767 37.312 74.624 52.767 90.079 68.222 74.624 90.079 52.767 105.428 37.418 105.534 37.524 105.534 23.241 105.534 6.613 105.534 0 90.079 0"/><g id="QA"><polygon class="cls-2" points="67.284 44.523 91.848 44.523 93.733 40.713 68.985 40.713 67.284 44.523"/><polygon class="cls-2" points="97.563 33.094 99.447 29.284 74.089 29.284 72.388 33.094 97.563 33.094"/><polygon class="cls-2" points="71.538 34.999 69.837 38.808 94.705 38.808 96.591 34.999 71.538 34.999"/><polygon class="cls-2" points="38.311 44.523 13.748 44.523 11.863 40.713 36.61 40.713 38.311 44.523"/><polygon class="cls-2" points="66.434 46.428 56.36 68.99 53.104 68.99 52.492 68.99 49.236 68.99 39.162 46.428 32.905 46.428 46.238 73.378 52.492 73.378 53.104 73.378 59.358 73.378 72.69 46.428 66.434 46.428"/><polygon class="cls-2" points="8.033 33.094 6.149 29.284 31.507 29.284 33.209 33.094 8.033 33.094"/><polygon class="cls-2" points="34.059 34.999 35.76 38.808 10.89 38.808 9.006 34.999 34.059 34.999"/><path class="cls-2" d="M41.8818,12.4775h4.3665V8.1107H40.4262V6.6555h7.2776v7.2776H40.4262V9.5666h1.4552Z"/><path class="cls-2" d="M56.4368,6.6555V8.1107H49.1593V6.6555ZM49.1593,9.5666h7.2775v1.4551h-5.822v1.4552h5.822V13.932H49.1593Z"/><path class="cls-2" d="M60.8033,11.022H59.3482v2.9111H57.893V6.6555h7.2775V11.022H62.6l2.57,2.9111H63.3732ZM59.3479,8.1107V9.5658h4.3665V8.1107Z"/><path class="cls-2" d="M14.71,22.5167l.9526.9527v3.81H6.1385V17.7545h9.5243v3.81Zm-.9527-.9526V19.6587H8.0438v1.9054ZM8.0438,23.4692v1.9053h5.7141V23.4692Z"/><path class="cls-2" d="M27.0921,17.7545v9.5244H17.5677V17.7545ZM19.4726,19.66v5.7138h5.7147V19.6594Z"/><path class="cls-2" d="M38.5214,17.7545v9.5244H28.997V17.7545ZM30.9019,19.66v5.7138h5.7147V19.6594Z"/><path class="cls-2" d="M40.4262,27.2789V17.7545h1.9053v3.81l4.8516-3.81h2.768l-5.7147,4.8812,5.7143,4.6432H47.1528l-4.8217-3.81v3.81Z"/><path class="cls-2" d="M6.1385,14.8856H99.4577v1.9053H53.5741V27.3792H51.6688V16.7905H6.1385Z"/><path class="cls-2" d="M59.4558,23.4692H57.5505v3.81H55.6452V17.7545H65.17v5.7147H61.8066l3.3632,3.81H62.8186Zm-1.9053-3.81v1.9053h5.7147V19.6594Z"/><path class="cls-2" d="M68.98,17.7545v7.6191h5.7147V17.7545H76.6v9.5244H67.0747V17.7545Z"/><path class="cls-2" d="M80.4089,27.2789H78.5036V17.7545H88.028v5.7147H80.4089Zm5.7147-5.7145V19.6591H80.4089v1.9053Z"/><path class="cls-2" d="M91.8381,27.2789H89.9328V17.7545h9.5245v5.7147H91.8381Zm5.7147-5.7145V19.6591H91.8381v1.9053Z"/><path class="cls-2" d="M65.7239,29.284H35.2223l15.291,36.291h4.57L70.374,29.284ZM56.5075,42.4175H55.0238v1.4837H53.54V42.4175H49.0887V34.9987h7.4188Z"/><rect class="cls-2" x="50.5724" y="36.4824" width="4.4513" height="4.4513"/></g></g></g></svg>