<svg xmlns="http://www.w3.org/2000/svg" viewBox="0 0 105.5338 90.0787"><defs><style>.cls-1{fill:#222;}.cls-2{fill:#fff;}</style></defs><title>Element 14</title><g id="Ebene_2" data-name="Ebene 2"><g id="Plakette"><polygon id="Hintergrund" class="cls-1" points="90.079 0 68.222 0 37.312 0 15.455 0 0 0 0 6.402 0 23.241 0 37.312 15.455 52.767 37.312 74.624 52.767 90.079 68.222 74.624 90.079 52.767 105.428 37.418 105.534 37.524 105.534 23.241 105.534 6.613 105.534 0 90.079 0"/><g id="Productowner"><g id="Productowner-2" data-name="Productowner"><polygon class="cls-2" points="67.284 44.536 91.856 44.536 93.741 40.725 68.986 40.725 67.284 44.536"/><polygon class="cls-2" points="97.573 33.103 99.458 29.291 74.091 29.291 72.389 33.103 97.573 33.103"/><polygon class="cls-2" points="71.539 35.008 69.837 38.819 94.714 38.819 96.6 35.008 71.539 35.008"/><polygon class="cls-2" points="38.301 44.536 13.73 44.536 11.844 40.725 36.599 40.725 38.301 44.536"/><polygon class="cls-2" points="66.434 46.442 56.356 69.011 53.099 69.011 52.487 69.011 49.23 69.011 39.152 46.442 32.893 46.442 46.231 73.401 52.487 73.401 53.099 73.401 59.355 73.401 72.692 46.442 66.434 46.442"/><polygon class="cls-2" points="8.013 33.103 6.128 29.291 31.495 29.291 33.197 33.103 8.013 33.103"/><polygon class="cls-2" points="34.047 35.008 35.749 38.819 10.871 38.819 8.986 35.008 34.047 35.008"/><path class="cls-2" d="M41.8729,12.48h4.368V8.1112H40.4168V6.6555h7.28v7.28h-7.28V9.5675h1.4557Z"/><path class="cls-2" d="M56.4328,6.6555V8.1112h-7.28V6.6555Zm-7.28,2.912h7.28v1.4557H50.6089v1.4556h5.8239v1.4557h-7.28Z"/><path class="cls-2" d="M60.8008,11.0235H59.3452v2.912H57.89v-7.28h7.28v4.368H62.598l2.5708,2.912H63.3715Zm-1.456-2.9123V9.5668h4.368V8.1112Z"/><path class="cls-2" d="M14.6923,22.5221l.953.9529v3.8109H6.1175V17.7582h9.5276v3.8111Zm-.9529-.953v-1.906H8.0235v1.906ZM8.0235,23.4748v1.906H13.74v-1.906Z"/><path class="cls-2" d="M27.0782,17.7582v9.5277H17.5506V17.7582Zm-7.622,1.906V25.38h5.7166V19.6638Z"/><path class="cls-2" d="M38.5114,17.7582v9.5277H28.9837V17.7582Zm-7.6221,1.906V25.38h5.7166V19.6638Z"/><path class="cls-2" d="M40.4168,27.2859V17.7582h1.906v3.8111l4.8532-3.8111h2.7689l-5.7166,4.8829,5.7162,4.6448H47.1457l-4.8233-3.811v3.811Z"/><path class="cls-2" d="M6.1175,14.8884H99.4682v1.906H53.5692V27.3862h-1.906V16.7939H6.1175Z"/><path class="cls-2" d="M59.4528,23.4748H57.5469v3.8111h-1.906V17.7582h9.5276v5.7166H61.8044l3.3644,3.8111H62.8167Zm-1.9059-3.811V21.57h5.7166V19.6638Z"/><path class="cls-2" d="M68.98,17.7582V25.38h5.7166V17.7582h1.9059v9.5277H67.0743V17.7582Z"/><path class="cls-2" d="M80.413,27.2859H78.507V17.7582h9.5277v5.7166H80.413ZM86.13,21.5694v-1.906H80.413v1.906Z"/><path class="cls-2" d="M91.846,27.2859H89.94V17.7582h9.5277v5.7166H91.846Zm5.7167-5.7165v-1.906H91.846v1.906Z"/><rect class="cls-2" x="50.1212" y="36.7894" width="5.3434" height="1.781"/><path class="cls-2" d="M65.723,29.2916H35.2112L50.5073,65.5948h4.5711L70.3746,29.2916Zm-8.4773,11.06H50.1212v3.5623H48.34V35.0082h8.9056Z"/></g></g></g></g></svg>