<svg xmlns="http://www.w3.org/2000/svg" viewBox="0 0 105.5338 90.0787"><defs><style>.cls-1{fill:#222;}.cls-2{fill:#fff;}</style></defs><title>Element 5</title><g id="Ebene_2" data-name="Ebene 2"><g id="Plakette"><polygon class="cls-1" points="90.079 0 68.222 0 37.312 0 15.455 0 0 0 0 6.402 0 23.241 0 37.312 15.455 52.767 37.312 74.624 52.767 90.079 68.222 74.624 90.079 52.767 105.428 37.418 105.534 37.524 105.534 23.241 105.534 6.613 105.534 0 90.079 0"/><g id="Backend"><polygon class="cls-2" points="67.249 44.54 91.824 44.54 93.71 40.729 68.951 40.729 67.249 44.54"/><polygon class="cls-2" points="97.542 33.106 99.427 29.294 74.057 29.294 72.355 33.106 97.542 33.106"/><polygon class="cls-2" points="71.505 35.011 69.803 38.823 94.683 38.823 96.569 35.011 71.505 35.011"/><polygon class="cls-2" points="38.263 44.54 13.689 44.54 11.803 40.729 36.561 40.729 38.263 44.54"/><polygon class="cls-2" points="66.399 46.446 56.32 69.018 53.063 69.018 52.45 69.018 49.193 69.018 39.115 46.446 32.855 46.446 46.194 73.408 52.45 73.408 53.063 73.408 59.32 73.408 72.658 46.446 66.399 46.446"/><polygon class="cls-2" points="7.972 33.106 6.087 29.294 31.456 29.294 33.158 33.106 7.972 33.106"/><polygon class="cls-2" points="34.009 35.011 35.711 38.823 10.83 38.823 8.945 35.011 34.009 35.011"/><path class="cls-2" d="M41.8355,12.48H46.204V8.1113H40.3793V6.6555H47.66v7.2809H40.3793V9.5679h1.4558Z"/><path class="cls-2" d="M56.3971,6.6555V8.1113H49.1162V6.6555ZM49.1162,9.5679h7.2809v1.4558H50.5725V12.48h5.8246v1.4558H49.1162Z"/><path class="cls-2" d="M60.7656,11.024H59.31v2.9124H57.8539V6.6555h7.2808V11.024H62.563l2.571,2.9124H63.3366ZM59.3094,8.1113V9.5671h4.3685V8.1113Z"/><path class="cls-2" d="M14.6518,22.5239l.9531.9531v3.8113H6.076V17.76h9.5287V21.571Zm-.9531-.9531V19.6646H7.9822v1.9062ZM7.9822,23.4767v1.9062h5.7167V23.4767Z"/><path class="cls-2" d="M27.0391,17.76v9.5288H17.51V17.76Zm-7.6229,1.9062v5.7164h5.7173V19.6652Z"/><path class="cls-2" d="M38.4736,17.76v9.5288H28.9449V17.76Zm-7.623,1.9062v5.7164h5.7173V19.6652Z"/><path class="cls-2" d="M40.3793,27.2883V17.76h1.9061V21.571L47.1392,17.76h2.7692L44.1912,22.643l5.7168,4.6453H47.1089L42.285,23.4769v3.8114Z"/><path class="cls-2" d="M6.076,14.8893H99.4374v1.9062H53.5331V27.3886H51.6269V16.7951H6.076Z"/><path class="cls-2" d="M59.4174,23.4767H57.5112v3.8116H55.6051V17.76h9.5286v5.7172H61.7692l3.3648,3.8116H62.7817Zm-1.9062-3.8115v1.9062h5.7173V19.6652Z"/><path class="cls-2" d="M68.9456,17.76v7.6226h5.7172V17.76H76.569v9.5288H67.04V17.76Z"/><path class="cls-2" d="M80.38,27.2883H78.4738V17.76h9.5287v5.7172H80.38Zm5.7172-5.7172V19.6649H80.38v1.9062Z"/><path class="cls-2" d="M91.8144,27.2883H89.9082V17.76H99.437v5.7172H91.8144Zm5.7172-5.7172V19.6649H91.8144v1.9062Z"/><rect class="cls-2" x="50.0846" y="36.7926" width="5.3442" height="1.7812"/><rect class="cls-2" x="50.0846" y="40.3551" width="5.3442" height="1.7812"/><path class="cls-2" d="M65.6883,29.2942H35.173L50.4709,65.6016h4.5716l15.298-36.3074Zm-8.4783,9.28-.89.89.89.89v3.5625H48.3034V35.0115H57.21Z"/></g></g></g></svg>