<svg xmlns="http://www.w3.org/2000/svg" viewBox="0 0 105.5338 90.0787"><defs><style>.cls-1{fill:#222;}.cls-2{fill:#fff;}</style></defs><title>Element 11</title><g id="Ebene_2" data-name="Ebene 2"><g id="Plakette"><polygon class="cls-1" points="90.079 0 68.222 0 37.312 0 15.455 0 0 0 0 6.402 0 23.241 0 37.312 15.455 52.767 37.312 74.624 52.767 90.079 68.222 74.624 90.079 52.767 105.428 37.418 105.534 37.524 105.534 23.241 105.534 6.613 105.534 0 90.079 0"/><g id="UI_UX" data-name="UI UX"><polygon class="cls-2" points="67.288 44.519 91.849 44.519 93.733 40.71 68.989 40.71 67.288 44.519"/><polygon class="cls-2" points="97.563 33.091 99.447 29.281 74.092 29.281 72.391 33.091 97.563 33.091"/><polygon class="cls-2" points="71.541 34.995 69.84 38.805 94.706 38.805 96.591 34.995 71.541 34.995"/><polygon class="cls-2" points="38.318 44.519 13.758 44.519 11.873 40.71 36.617 40.71 38.318 44.519"/><polygon class="cls-2" points="66.438 46.424 56.365 68.983 53.11 68.983 52.497 68.983 49.242 68.983 39.169 46.424 32.912 46.424 46.244 73.371 52.497 73.371 53.11 73.371 59.363 73.371 72.693 46.424 66.438 46.424"/><polygon class="cls-2" points="8.044 33.091 6.159 29.281 31.515 29.281 33.216 33.091 8.044 33.091"/><polygon class="cls-2" points="34.066 34.995 35.767 38.805 10.9 38.805 9.016 34.995 34.066 34.995"/><path class="cls-2" d="M41.8883,12.4769h4.366V8.1105H40.4329V6.6555H47.71v7.2768H40.4329V9.5662h1.4549Z"/><path class="cls-2" d="M56.4416,6.6555v1.455H49.1649V6.6555ZM49.1649,9.5662h7.2768v1.455H50.62v1.455h5.8213v1.455H49.1649Z"/><path class="cls-2" d="M60.8077,11.0215h-1.455v2.9108h-1.455V6.6555h7.2766v4.366h-2.57l2.57,2.9108H63.3773Zm-1.4553-2.911v1.455h4.366V8.1105Z"/><path class="cls-2" d="M14.72,22.5149l.9525.9526v3.8091H6.1489V17.7532h9.5233v3.8094Zm-.9526-.9525V19.6573H8.054v1.9051ZM8.054,23.4673v1.9051h5.7136V23.4673Z"/><path class="cls-2" d="M27.1,17.7532v9.5234H17.5769V17.7532Zm-7.6186,1.9051v5.7132h5.714V19.6579Z"/><path class="cls-2" d="M38.5283,17.7532v9.5234H29.0049V17.7532ZM30.91,19.6583v5.7132h5.714V19.6579Z"/><path class="cls-2" d="M40.4329,27.2766V17.7532H42.338v3.8094l4.8509-3.8094h2.7678L44.2426,22.634l5.7137,4.6426H47.1587l-4.8212-3.8092v3.8092Z"/><path class="cls-2" d="M6.1489,14.8847H99.4577V16.79H53.5793V27.3769H51.6742V16.7894H6.1489Z"/><path class="cls-2" d="M59.46,23.4673H57.5552v3.8093H55.65V17.7532h9.5233v5.7141H61.8108l3.3629,3.8093h-2.351Zm-1.9051-3.8094V21.563h5.714V19.6579Z"/><path class="cls-2" d="M68.9831,17.7532v7.6183h5.714V17.7532h1.9051v9.5234H67.0784V17.7532Z"/><path class="cls-2" d="M80.411,27.2766H78.5059V17.7532h9.5234v5.7141H80.411Zm5.7141-5.7139V19.6576H80.411v1.9051Z"/><path class="cls-2" d="M91.839,27.2766H89.9339V17.7532h9.5234v5.7141H91.839Zm5.714-5.7139V19.6576H91.839v1.9051Z"/><path class="cls-2" d="M65.7276,29.2815H35.23L50.5188,65.5684h4.5691L70.3772,29.2815ZM57.254,43.897H48.3525V34.9955h1.78v7.1212h5.341V34.9955h1.78Z"/></g></g></g></svg>