<svg xmlns="http://www.w3.org/2000/svg" viewBox="0 0 89.1215 42.1201"><title>Element 11</title><g id="Ebene_2" data-name="Ebene 2"><g id="Frontend"><polygon points="58.399 14.557 81.862 14.557 83.663 10.918 60.024 10.918 58.399 14.557"/><polygon points="87.321 3.639 89.122 0 64.899 0 63.274 3.639 87.321 3.639"/><polygon points="62.461 5.459 60.836 9.098 84.592 9.098 86.392 5.459 62.461 5.459"/><polygon points="30.723 14.557 7.259 14.557 5.459 10.918 29.098 10.918 30.723 14.557"/><polygon points="57.586 16.376 47.963 37.927 44.853 37.927 44.268 37.927 41.158 37.927 31.535 16.376 25.559 16.376 38.295 42.12 44.268 42.12 44.853 42.12 50.827 42.12 63.563 16.376 57.586 16.376"/><polygon points="1.8 3.639 0 0 24.223 0 25.848 3.639 1.8 3.639"/><polygon points="26.66 5.459 28.285 9.098 4.53 9.098 2.729 5.459 26.66 5.459"/><path d="M56.9078,0H27.7719L42.3783,34.666h4.365L61.35,0Zm-8.095,7.16H42.01V8.86h6.8032v1.7007H42.01v3.4016H40.3088V5.4587h8.504Z"/></g></g></svg>