<svg xmlns="http://www.w3.org/2000/svg" viewBox="0 0 105.5338 90.0787"><defs><style>.cls-1{fill:#222;}.cls-2{fill:#fff;}</style></defs><title>Element 7</title><g id="Ebene_2" data-name="Ebene 2"><g id="Plakette"><polygon class="cls-1" points="90.079 0 68.222 0 37.312 0 15.455 0 0 0 0 6.402 0 23.241 0 37.312 15.455 52.767 37.312 74.624 52.767 90.079 68.222 74.624 90.079 52.767 105.428 37.418 105.534 37.524 105.534 23.241 105.534 6.613 105.534 0 90.079 0"/><g id="DevOps"><polygon class="cls-2" points="67.273 44.536 91.846 44.536 93.731 40.725 68.975 40.725 67.273 44.536"/><polygon class="cls-2" points="97.562 33.103 99.447 29.291 74.08 29.291 72.379 33.103 97.562 33.103"/><polygon class="cls-2" points="71.528 35.008 69.827 38.819 94.704 38.819 96.59 35.008 71.528 35.008"/><polygon class="cls-2" points="38.29 44.536 13.719 44.536 11.833 40.725 36.589 40.725 38.29 44.536"/><polygon class="cls-2" points="66.423 46.442 56.346 69.011 53.089 69.011 52.476 69.011 49.219 69.011 39.142 46.442 32.883 46.442 46.22 73.401 52.476 73.401 53.089 73.401 59.345 73.401 72.681 46.442 66.423 46.442"/><polygon class="cls-2" points="8.003 33.103 6.118 29.291 31.485 29.291 33.186 33.103 8.003 33.103"/><polygon class="cls-2" points="34.037 35.008 35.738 38.819 10.86 38.819 8.975 35.008 34.037 35.008"/><path class="cls-2" d="M41.8624,12.48H46.23V8.1112h-5.824V6.6555h7.28v7.28h-7.28V9.5675H41.862Z"/><path class="cls-2" d="M56.4223,6.6555V8.1112h-7.28V6.6555Zm-7.28,2.912h7.28v1.4557H50.5984v1.4556h5.8239v1.4557h-7.28Z"/><path class="cls-2" d="M60.79,11.0235H59.3347v2.912H57.879v-7.28h7.28v4.368H62.5876l2.5707,2.912H63.3611ZM59.3344,8.1112V9.5668h4.368V8.1112Z"/><path class="cls-2" d="M14.6819,22.5221l.9529.9529v3.8109H6.1071V17.7582h9.5275v3.8111Zm-.953-.953v-1.906H8.013v1.906ZM8.013,23.4748v1.906h5.7161v-1.906Z"/><path class="cls-2" d="M27.0677,17.7582v9.5277H17.54V17.7582Zm-7.622,1.906V25.38h5.7166V19.6638Z"/><path class="cls-2" d="M38.5009,17.7582v9.5277H28.9733V17.7582Zm-7.6221,1.906V25.38h5.7166V19.6638Z"/><path class="cls-2" d="M40.4064,27.2859V17.7582h1.9059v3.8111l4.8532-3.8111h2.769l-5.7166,4.8829,5.7161,4.6448H47.1352l-4.8233-3.811v3.811Z"/><path class="cls-2" d="M6.1071,14.8884H99.4577v1.906H53.5587V27.3862h-1.906V16.7939H6.1071Z"/><path class="cls-2" d="M59.4423,23.4748H57.5364v3.8111H55.63V17.7582H65.158v5.7166H61.7939l3.3644,3.8111H62.8062Zm-1.9059-3.811V21.57H63.253V19.6638Z"/><path class="cls-2" d="M68.9694,17.7582V25.38H74.686V17.7582h1.9059v9.5277H67.0638V17.7582Z"/><path class="cls-2" d="M80.4025,27.2859h-1.906V17.7582h9.5277v5.7166H80.4025Zm5.7166-5.7165v-1.906H80.4025v1.906Z"/><path class="cls-2" d="M91.8356,27.2859H89.93V17.7582h9.5277v5.7166H91.8356Zm5.7166-5.7165v-1.906H91.8356v1.906Z"/><path class="cls-2" d="M65.7125,29.2916H35.2007L50.4968,65.5948H55.068L70.3642,29.2916ZM57.2352,43.9138H48.33V38.5705h1.7811v3.5621h5.3434V36.7894H48.33V35.0082h8.9056Z"/></g></g></g></svg>