<svg xmlns="http://www.w3.org/2000/svg" viewBox="0 0 74.6237 74.6237"><defs><style>.cls-1{fill:#222;}.cls-2{fill:#fff;}</style></defs><title>Element 13</title><g id="Ebene_2" data-name="Ebene 2"><g id="Icon"><polygon class="cls-1" points="52.767 0 37.312 15.455 21.857 0 0 0 0 21.857 0 52.767 21.857 74.624 52.767 74.624 74.624 52.767 74.624 21.857 74.624 0 52.767 0"/><path class="cls-2" d="M44.0682,36.1773l1.6891,1.6891v6.7563H28.8664V27.7318H45.7573v6.7564Zm-1.6891-1.6891V31.11H32.2446v3.3782ZM32.2446,37.8664v3.3782H42.3791V37.8664Z"/><path class="cls-2" d="M18.7318,41.2446H28.8664V31.11H15.3536V27.7318h16.891V44.6227H15.3536V34.4882h3.3782Z"/><path class="cls-2" d="M44.0682,36.1773l1.6891,1.6891v6.7563H28.8664V27.7318H45.7573v6.7564Zm-1.6891-1.6891V31.11H32.2446v3.3782ZM32.2446,37.8664v3.3782H42.3791V37.8664Z"/><path class="cls-2" d="M42.3791,27.7318H59.27V31.11H52.5137V44.6227H49.1355V31.11H42.3791Z"/></g></g></svg>