<svg xmlns="http://www.w3.org/2000/svg" viewBox="0 0 105.5338 90.0787"><defs><style>.cls-1{fill:#222;}.cls-2{fill:#fff;}</style></defs><title>Element 6</title><g id="Ebene_2" data-name="Ebene 2"><g id="Plakette"><polygon class="cls-1" points="90.079 0 68.222 0 37.312 0 15.455 0 0 0 0 6.402 0 23.241 0 37.312 15.455 52.767 37.312 74.624 52.767 90.079 68.222 74.624 90.079 52.767 105.428 37.418 105.534 37.524 105.534 23.241 105.534 6.613 105.534 0 90.079 0"/><g id="Allgemein"><polygon class="cls-2" points="67.27 44.54 91.845 44.54 93.73 40.729 68.972 40.729 67.27 44.54"/><polygon class="cls-2" points="97.562 33.106 99.447 29.294 74.078 29.294 72.376 33.106 97.562 33.106"/><polygon class="cls-2" points="71.525 35.011 69.823 38.823 94.703 38.823 96.589 35.011 71.525 35.011"/><polygon class="cls-2" points="38.284 44.54 13.71 44.54 11.823 40.729 36.582 40.729 38.284 44.54"/><polygon class="cls-2" points="66.419 46.446 56.341 69.018 53.084 69.018 52.471 69.018 49.214 69.018 39.135 46.446 32.875 46.446 46.214 73.408 52.471 73.408 53.084 73.408 59.34 73.408 72.678 46.446 66.419 46.446"/><polygon class="cls-2" points="7.992 33.106 6.107 29.294 31.477 29.294 33.179 33.106 7.992 33.106"/><polygon class="cls-2" points="34.029 35.011 35.731 38.823 10.85 38.823 8.965 35.011 34.029 35.011"/><path class="cls-2" d="M41.856,12.48h4.3684V8.1113H40.4V6.6555h7.2809v7.2808H40.4V9.5679h1.4558Z"/><path class="cls-2" d="M56.4175,6.6555V8.1113H49.1367V6.6555ZM49.1367,9.5679h7.2808v1.4558H50.5929V12.48h5.8246v1.4558H49.1367Z"/><path class="cls-2" d="M60.786,11.024H59.33v2.9123H57.8744V6.6555h7.2807V11.024H62.5834l2.5711,2.9123H63.357ZM59.33,8.1113V9.5671h4.3684V8.1113Z"/><path class="cls-2" d="M14.6724,22.5238l.953.9531v3.8113H6.0966V17.76h9.5286V21.571Zm-.9531-.953V19.6646H8.0028v1.9062ZM8.0028,23.4767v1.9062H13.72V23.4767Z"/><path class="cls-2" d="M27.06,17.76v9.5287H17.531V17.76Zm-7.6229,1.9061V25.382H25.154V19.6652Z"/><path class="cls-2" d="M38.4941,17.76v9.5287H28.9654V17.76Zm-7.623,1.9061V25.382h5.7172V19.6652Z"/><path class="cls-2" d="M40.4,27.2882V17.76h1.9062V21.571L47.16,17.76h2.7693l-5.7172,4.8834,5.7168,4.6453H47.1293l-4.8238-3.8114v3.8114Z"/><path class="cls-2" d="M6.0966,14.8893H99.4577v1.9062H53.5535v10.593H51.6474V16.7951H6.0966Z"/><path class="cls-2" d="M59.4378,23.4767H57.5317v3.8115H55.6255V17.76h9.5286v5.7172H61.79l3.3648,3.8115H62.8021Zm-1.9061-3.8115v1.9062h5.7172V19.6652Z"/><path class="cls-2" d="M68.966,17.76V25.382h5.7172V17.76h1.9062v9.5287H67.06V17.76Z"/><path class="cls-2" d="M80.4,27.2882H78.4942V17.76h9.5287v5.7172H80.4Zm5.7173-5.7171V19.6649H80.4v1.9062Z"/><path class="cls-2" d="M91.8347,27.2882H89.9286V17.76h9.5287v5.7172H91.8347Zm5.7173-5.7171V19.6649H91.8347v1.9062Z"/><rect class="cls-2" x="50.9958" y="38.5741" width="3.5626" height="1.1876"/><rect class="cls-2" x="50.9958" y="36.1989" width="3.5626" height="1.1876"/><path class="cls-2" d="M65.7087,29.2942H35.1935L50.4913,65.6014H55.063L70.3609,29.2942ZM48.6208,40.9491h-4.75V37.3865h1.1872v2.3756h3.5627Zm0-4.75h-4.75V35.0114h4.75Zm7.1252,1.1876-.5938.5937.5938.5939v2.375H49.8084V35.0114H55.746Zm5.9377-1.1876H59.3086v4.75H58.1211v-4.75H56.9335V35.0114h4.75Z"/></g></g></g></svg>