<svg xmlns="http://www.w3.org/2000/svg" viewBox="0 0 74.6237 74.6237"><defs><style>.cls-1{fill:#222;}.cls-2{fill:#fff;}</style></defs><title>Element 2</title><g id="Ebene_2" data-name="Ebene 2"><g id="Icon"><polygon class="cls-1" points="52.767 0 37.312 15.455 21.857 0 0 0 0 21.857 0 52.767 21.857 74.624 52.767 74.624 74.624 52.767 74.624 21.857 74.624 0 52.767 0"/><path class="cls-2" d="M44.0682,36.1773l1.6891,1.6891v6.7563H28.8664V27.7318H45.7573v6.7564Zm-1.6891-1.6891V31.11H32.2446v3.3782ZM32.2446,37.8664v3.3782H42.3791V37.8664Z"/><rect class="cls-2" x="11.9754" y="27.7318" width="13.5128" height="3.3782"/><polygon class="cls-2" points="25.488 41.245 15.354 41.245 15.354 34.488 11.975 34.488 11.975 44.623 25.488 44.623 25.488 41.245"/><polygon class="cls-2" points="49.136 27.732 49.136 31.11 52.514 31.11 52.514 44.623 55.892 44.623 55.892 31.11 62.648 31.11 62.648 27.732 49.136 27.732"/></g></g></svg>