<svg xmlns="http://www.w3.org/2000/svg" viewBox="0 0 105.5338 90.0787"><defs><style>.cls-1{fill:#222;}.cls-2{fill:#fff;}</style></defs><title>Element 9</title><g id="Ebene_2" data-name="Ebene 2"><g id="Plakette"><polygon class="cls-1" points="90.079 0 68.222 0 37.312 0 15.455 0 0 0 0 6.402 0 23.241 0 37.312 15.455 52.767 37.312 74.624 52.767 90.079 68.222 74.624 90.079 52.767 105.428 37.418 105.534 37.524 105.534 23.241 105.534 6.613 105.534 0 90.079 0"/><g id="Fullstack"><polygon class="cls-2" points="67.281 44.527 91.847 44.527 93.732 40.717 68.982 40.717 67.281 44.527"/><polygon class="cls-2" points="97.563 33.097 99.447 29.286 74.086 29.286 72.385 33.097 97.563 33.097"/><polygon class="cls-2" points="71.535 35.002 69.833 38.812 94.705 38.812 96.59 35.002 71.535 35.002"/><polygon class="cls-2" points="38.304 44.527 13.739 44.527 11.853 40.717 36.603 40.717 38.304 44.527"/><polygon class="cls-2" points="66.431 46.433 56.355 68.997 53.099 68.997 52.487 68.997 49.231 68.997 39.155 46.433 32.898 46.433 46.232 73.386 52.487 73.386 53.099 73.386 59.354 73.386 72.687 46.433 66.431 46.433"/><polygon class="cls-2" points="8.023 33.097 6.138 29.286 31.5 29.286 33.201 33.097 8.023 33.097"/><polygon class="cls-2" points="34.051 35.002 35.753 38.812 10.88 38.812 8.996 35.002 34.051 35.002"/><path class="cls-2" d="M41.8753,12.4782h4.3671V8.1108H40.42V6.6555H47.698v7.2784H40.42V9.5669h1.4553Z"/><path class="cls-2" d="M56.432,6.6555V8.1108H49.1536V6.6555ZM49.1536,9.5669H56.432v1.4553H50.6094v1.4553H56.432v1.4553H49.1536Z"/><path class="cls-2" d="M60.799,11.0225H59.3437v2.9114H57.8884V6.6555h7.2782v4.367H62.5958l2.57,2.9114H63.3692ZM59.3434,8.1108V9.5662H63.71V8.1108Z"/><path class="cls-2" d="M14.7009,22.5185l.9527.9528v3.81H6.128V17.7557h9.5254v3.81Zm-.9528-.9528V19.66H8.0335v1.9055ZM8.0335,23.471v1.9056h5.7148V23.471Z"/><path class="cls-2" d="M27.084,17.7557v9.5256H17.5585V17.7557Zm-7.62,1.9056v5.7144H25.179V19.6608Z"/><path class="cls-2" d="M38.5146,17.7557v9.5256H28.9891V17.7557Zm-7.62,1.9056v5.7144H36.61V19.6608Z"/><path class="cls-2" d="M40.42,27.2813V17.7557h1.9055v3.81l4.8521-3.81h2.7684L44.23,22.6375l5.7149,4.6438H47.147l-4.8223-3.81v3.81Z"/><path class="cls-2" d="M6.128,14.8866h93.33v1.9055H53.569V27.3816H51.6635v-10.59H6.128Z"/><path class="cls-2" d="M59.4513,23.471H57.5458v3.81H55.64V17.7557h9.5254V23.471H61.8023l3.3637,3.81H62.8145Zm-1.9055-3.81v1.9056h5.7153V19.6608Z"/><path class="cls-2" d="M68.9762,17.7557v7.62h5.7153v-7.62h1.9056v9.5256h-9.526V17.7557Z"/><path class="cls-2" d="M80.4068,27.2813H78.5012V17.7557h9.5256V23.471h-7.62Zm5.7153-5.7153V19.6605H80.4068V21.566Z"/><path class="cls-2" d="M91.8373,27.2813H89.9318V17.7557h9.5255V23.471h-7.62Zm5.7153-5.7153V19.6605H91.8373V21.566Z"/><path class="cls-2" d="M65.72,29.2866H35.2151l15.2927,36.295h4.57l15.2928-36.295ZM52.051,36.5441H46.1151V38.028H52.051v1.4839H46.1151V42.48H44.6313V35.06h7.42Zm8.9035,0H55.0188V38.028h5.9357V42.48h-7.42v-1.484h5.9357V39.5119H53.5349V35.06h7.42Z"/></g></g></g></svg>