<svg xmlns="http://www.w3.org/2000/svg" viewBox="0 0 105.5338 90.0787"><defs><style>.cls-1{fill:#222;}.cls-2{fill:#fff;}</style></defs><title>Element 8</title><g id="Ebene_2" data-name="Ebene 2"><g id="Plakette"><polygon class="cls-1" points="90.079 0 68.222 0 37.312 0 15.455 0 0 0 0 6.402 0 23.241 0 37.312 15.455 52.767 37.312 74.624 52.767 90.079 68.222 74.624 90.079 52.767 105.428 37.418 105.534 37.524 105.534 23.241 105.534 6.613 105.534 0 90.079 0"/><g id="Frontend"><polygon class="cls-2" points="67.277 44.532 91.846 44.532 93.731 40.721 68.979 40.721 67.277 44.532"/><polygon class="cls-2" points="97.563 33.1 99.447 29.289 74.083 29.289 72.382 33.1 97.563 33.1"/><polygon class="cls-2" points="71.532 35.005 69.83 38.815 94.704 38.815 96.59 35.005 71.532 35.005"/><polygon class="cls-2" points="38.297 44.532 13.729 44.532 11.843 40.721 36.596 40.721 38.297 44.532"/><polygon class="cls-2" points="66.427 46.437 56.351 69.004 53.094 69.004 52.481 69.004 49.225 69.004 39.149 46.437 32.89 46.437 46.226 73.393 52.481 73.393 53.094 73.393 59.349 73.393 72.684 46.437 66.427 46.437"/><polygon class="cls-2" points="8.013 33.1 6.128 29.289 31.492 29.289 33.194 33.1 8.013 33.1"/><polygon class="cls-2" points="34.044 35.005 35.745 38.815 10.87 38.815 8.986 35.005 34.044 35.005"/><path class="cls-2" d="M41.8689,12.4788h4.3675V8.111H40.413V6.6555h7.2792v7.2792H40.413V9.5672h1.4555Z"/><path class="cls-2" d="M56.4272,6.6555V8.111H49.148V6.6555ZM49.148,9.5672h7.2792v1.4555H50.6039v1.4555h5.8233v1.4555H49.148Z"/><path class="cls-2" d="M60.7947,11.023H59.3392v2.9117H57.8837V6.6555h7.2791V11.023H62.5917l2.57,2.9117H63.3651ZM59.3389,8.111V9.5665h4.3675V8.111Z"/><path class="cls-2" d="M14.6914,22.52l.9528.9528v3.8105H6.1175V17.757H15.644v3.8106Zm-.9529-.9529V19.6617H8.0233v1.9057ZM8.0233,23.4729v1.9058h5.7154V23.4729Z"/><path class="cls-2" d="M27.0759,17.757v9.5266H17.5494V17.757Zm-7.6212,1.9057v5.7151h5.7159V19.6623Z"/><path class="cls-2" d="M38.5078,17.757v9.5266H28.9812V17.757Zm-7.6213,1.9057v5.7151h5.716V19.6623Z"/><path class="cls-2" d="M40.413,27.2836V17.757h1.9057v3.8106l4.8526-3.8106H49.94l-5.716,4.8823L49.94,27.2836H47.1411L42.3183,23.473v3.8106Z"/><path class="cls-2" d="M6.1175,14.8875h93.34v1.9057H53.5638V27.3839H51.6581V16.7928H6.1175Z"/><path class="cls-2" d="M59.4468,23.4729H57.5411v3.8107H55.6353V17.757h9.5265v5.7159H61.7981l3.3641,3.8107H62.81Zm-1.9057-3.8106V21.568H63.257V19.6623Z"/><path class="cls-2" d="M68.9728,17.757v7.6208h5.716V17.757h1.9057v9.5266h-9.527V17.757Z"/><path class="cls-2" d="M80.4046,27.2836H78.4989V17.757h9.5266v5.7159H80.4046Zm5.716-5.7159V19.662h-5.716v1.9057Z"/><path class="cls-2" d="M91.8364,27.2836H89.9307V17.757h9.5266v5.7159H91.8364Zm5.716-5.7159V19.662h-5.716v1.9057Z"/><path class="cls-2" d="M65.7163,29.2891H35.2079L50.5023,65.5882h4.5706L70.3674,29.2891ZM57.24,36.7864H50.1162v1.7809H57.24v1.7809H50.1162V43.91H48.3353V35.0051H57.24Z"/></g></g></g></svg>