<svg xmlns="http://www.w3.org/2000/svg" viewBox="0 0 105.5338 90.0787"><defs><style>.cls-1{fill:#222;}.cls-2{fill:#fff;}</style></defs><title>Element 4</title><g id="Ebene_2" data-name="Ebene 2"><g id="Plakette"><polygon class="cls-1" points="90.079 0 68.222 0 37.312 0 15.455 0 0 0 0 6.402 0 23.241 0 37.312 15.455 52.767 37.312 74.624 52.767 90.079 68.222 74.624 90.079 52.767 105.428 37.418 105.534 37.524 105.534 23.241 105.534 6.613 105.534 0 90.079 0"/><g id="Agile"><polygon class="cls-2" points="67.26 44.54 91.835 44.54 93.72 40.729 68.962 40.729 67.26 44.54"/><polygon class="cls-2" points="97.552 33.106 99.437 29.294 74.067 29.294 72.366 33.106 97.552 33.106"/><polygon class="cls-2" points="71.515 35.011 69.813 38.823 94.693 38.823 96.579 35.011 71.515 35.011"/><polygon class="cls-2" points="38.273 44.54 13.699 44.54 11.813 40.729 36.571 40.729 38.273 44.54"/><polygon class="cls-2" points="66.409 46.446 56.331 69.018 53.073 69.018 52.461 69.018 49.203 69.018 39.125 46.446 32.865 46.446 46.204 73.408 52.461 73.408 53.073 73.408 59.33 73.408 72.668 46.446 66.409 46.446"/><polygon class="cls-2" points="7.982 33.106 6.097 29.294 31.467 29.294 33.168 33.106 7.982 33.106"/><polygon class="cls-2" points="34.019 35.011 35.721 38.823 10.84 38.823 8.955 35.011 34.019 35.011"/><path class="cls-2" d="M41.8456,12.48h4.3685V8.1113H40.3894V6.6555H47.67v7.2809H40.3894V9.5679h1.4558Z"/><path class="cls-2" d="M56.4073,6.6555V8.1113H49.1264V6.6555ZM49.1264,9.5679h7.2809v1.4558H50.5826V12.48h5.8247v1.4558H49.1264Z"/><path class="cls-2" d="M60.7758,11.024H59.32v2.9124H57.8641V6.6555h7.2808V11.024H62.5732l2.571,2.9124H63.3468ZM59.32,8.1113V9.5672h4.3685V8.1113Z"/><path class="cls-2" d="M14.6619,22.5239l.9531.9531v3.8113H6.0861V17.76h9.5287V21.571Zm-.9531-.9531V19.6646H7.9923v1.9062Zm-5.7165,1.906V25.383H13.709V23.4768Z"/><path class="cls-2" d="M27.0492,17.76v9.5288H17.5205V17.76Zm-7.6229,1.9062v5.7164h5.7173V19.6653Z"/><path class="cls-2" d="M38.4838,17.76v9.5288H28.955V17.76Zm-7.6231,1.9062v5.7164H36.578V19.6653Z"/><path class="cls-2" d="M40.3894,27.2883V17.76h1.9062V21.571L47.1493,17.76h2.7693L44.2013,22.643l5.7169,4.6453H47.1191l-4.8239-3.8114v3.8114Z"/><path class="cls-2" d="M6.0861,14.8894H99.4476v1.9061H53.5433V27.3886H51.6371V16.7951H6.0861Z"/><path class="cls-2" d="M59.4276,23.4768H57.5214v3.8115H55.6153V17.76h9.5286v5.7173H61.7794l3.3648,3.8115H62.7919Zm-1.9062-3.8115v1.9061h5.7173V19.6653Z"/><path class="cls-2" d="M68.9558,17.76v7.6226H74.673V17.76h1.9062v9.5288H67.05V17.76Z"/><path class="cls-2" d="M80.39,27.2883H78.484V17.76h9.5288v5.7173H80.39Zm5.7173-5.7172V19.665H80.39v1.9061Z"/><path class="cls-2" d="M91.8246,27.2883H89.9184V17.76h9.5288v5.7173H91.8246Zm5.7173-5.7172V19.665H91.8246v1.9061Z"/><path class="cls-2" d="M65.6985,29.2943H35.1831L50.481,65.6017h4.5717l15.298-36.3074ZM52.7665,43.9181V42.1368h1.7257l-1.7257-4.4533-2.4208,6.2346H48.3139l3.562-8.9065h1.7813L57.22,43.9181Z"/></g></g></g></svg>