<svg xmlns="http://www.w3.org/2000/svg" viewBox="0 0 89.1408 19.7958"><title>Element 1</title><g id="Ebene_2" data-name="Ebene 2"><g id="Langtext"><path d="M34.1429,5.5613h4.171V1.39H32.7525V0h6.9517V6.9517H32.7525V2.7807h1.39Z"/><path d="M48.0462,0V1.39H41.0945V0ZM41.0945,2.7807h6.9517v1.39H42.4849v1.39h5.5613v1.39H41.0945Z"/><path d="M52.2172,4.171h-1.39V6.9517h-1.39V0h6.9516V4.171H53.9334l2.4548,2.7807H54.672ZM50.8269,1.39v1.39h4.171V1.39Z"/><path d="M8.1881,15.151l.91.91V19.7H0V10.602H9.0979v3.6392Zm-.91-.91v-1.82H1.82v1.82ZM1.82,16.0608v1.82H7.2783v-1.82Z"/><path d="M20.0154,10.602V19.7H10.9175V10.602Zm-7.2783,1.82V17.88h5.4588V12.4216Z"/><path d="M30.933,10.602V19.7H21.835V10.602Zm-7.2784,1.82V17.88h5.4588V12.4216Z"/><path d="M32.7525,19.7V10.602h1.82v3.6392l4.6343-3.6392h2.6441l-5.4588,4.6627L41.8505,19.7H39.1779l-4.6058-3.6391V19.7Z"/><path d="M0,7.8616H89.1408v1.82H45.3117V19.7958h-1.82V9.6812H0Z"/><path d="M50.93,16.0608H49.11V19.7H47.29V10.602h9.0979v5.4588H53.1755L56.3882,19.7h-2.246Zm-1.82-3.6392v1.82h5.4588v-1.82Z"/><path d="M60.0274,10.602V17.88h5.4588V10.602h1.82V19.7H58.2078V10.602Z"/><path d="M70.9449,19.7h-1.82V10.602h9.098v5.4588H70.9449Zm5.4588-5.4587v-1.82H70.9449v1.82Z"/><path d="M81.8624,19.7h-1.82V10.602h9.098v5.4588H81.8624Zm5.4588-5.4587v-1.82H81.8624v1.82Z"/></g></g></svg>